<svg xmlns="http://www.w3.org/2000/svg" viewBox="0 0 900 540">
  <rect width="900" height="540" fill="#092B4C"/>
  <circle cx="840" cy="60" r="150" fill="#0067B9" opacity=".22"/>
  <circle cx="880" cy="480" r="130" fill="#37B878" opacity=".16"/>

  <svg x="56" y="56" width="120" height="120" viewBox="0 0 530 530">
    <g transform="translate(-24,-35)">
      <path d="M465 145 A210 210 0 1 0 465 455" fill="none" stroke="#00A6C8" stroke-width="58" stroke-linecap="round"/>
      <circle cx="465" cy="145" r="22" fill="#F7C948"/><circle cx="465" cy="455" r="22" fill="#37B878"/>
      <path d="M190 210 L285 412 L370 210" fill="none" stroke="#F04444" stroke-width="52" stroke-linecap="round" stroke-linejoin="round"/>
      <path d="M386 245 L386 412" fill="none" stroke="#FFFFFF" stroke-width="46" stroke-linecap="round"/>
      <path d="M386 168 L397 195 L426 197 L404 216 L411 245 L386 230 L361 245 L368 216 L346 197 L375 195 Z" fill="#F7C948"/>
    </g>
  </svg>
  <text x="192" y="118" font-family="Arial, Helvetica, sans-serif" font-size="40" font-weight="700" fill="#F04444">VI<tspan fill="#FFFFFF" dx="14">CONNECT</tspan></text>

  <line x1="56" y1="210" x2="290" y2="210" stroke="#00A6C8" stroke-width="2" opacity=".5"/>

  <text x="56" y="330" font-family="Arial, Helvetica, sans-serif" font-size="34" font-weight="700" fill="#FFFFFF">Nguyễn Văn A</text>
  <text x="56" y="364" font-family="Arial, Helvetica, sans-serif" font-size="20" fill="#00A6C8">Chuyên viên Hợp tác &amp; Đầu tư</text>

  <text x="56" y="440" font-family="Arial, Helvetica, sans-serif" font-size="17" fill="#C7D4E0">a.nguyen@vi-connect.vn</text>
  <text x="56" y="465" font-family="Arial, Helvetica, sans-serif" font-size="17" fill="#C7D4E0">+84 24 xxxx xxxx · vi-connect.vn</text>
  <text x="56" y="500" font-family="Arial, Helvetica, sans-serif" font-size="14" fill="#7C93AC" letter-spacing="1">HTIC · VIỆN HÀN LÂM KH&amp;CN VIỆT NAM (VAST)</text>
</svg>
