<svg xmlns="http://www.w3.org/2000/svg" viewBox="0 0 2100 2970">
  <rect width="2100" height="2970" fill="#FFFFFF"/>

  <!-- header -->
  <svg x="120" y="110" width="130" height="130" viewBox="0 0 530 530">
    <g transform="translate(-24,-35)">
      <path d="M465 145 A210 210 0 1 0 465 455" fill="none" stroke="#0067B9" stroke-width="58" stroke-linecap="round"/>
      <circle cx="465" cy="145" r="22" fill="#F7C948"/><circle cx="465" cy="455" r="22" fill="#37B878"/>
      <path d="M190 210 L285 412 L370 210" fill="none" stroke="#D62828" stroke-width="52" stroke-linecap="round" stroke-linejoin="round"/>
      <path d="M386 245 L386 412" fill="none" stroke="#092B4C" stroke-width="46" stroke-linecap="round"/>
      <path d="M386 168 L397 195 L426 197 L404 216 L411 245 L386 230 L361 245 L368 216 L346 197 L375 195 Z" fill="#F7C948"/>
    </g>
  </svg>
  <text x="270" y="175" font-family="Arial, Helvetica, sans-serif" font-size="56" font-weight="700"><tspan fill="#D62828">VI</tspan><tspan fill="#092B4C" dx="14">CONNECT</tspan></text>
  <text x="272" y="215" font-family="Arial, Helvetica, sans-serif" font-size="20" font-weight="700" letter-spacing="2" fill="#00A6C8">VIỆT NAM · KẾT NỐI TRI THỨC VÀ CÔNG NGHỆ</text>

  <text x="1980" y="150" text-anchor="end" font-family="Arial, Helvetica, sans-serif" font-size="22" font-weight="700" fill="#142433">Trung tâm Đổi mới sáng tạo công nghệ cao (HTIC)</text>
  <text x="1980" y="182" text-anchor="end" font-family="Arial, Helvetica, sans-serif" font-size="20" fill="#6b7280">Viện Hàn lâm Khoa học và Công nghệ Việt Nam (VAST)</text>

  <!-- kpi stripe -->
  <rect x="120" y="260" width="465" height="8" fill="#0067B9"/>
  <rect x="585" y="260" width="465" height="8" fill="#00A6C8"/>
  <rect x="1050" y="260" width="465" height="8" fill="#37B878"/>
  <rect x="1515" y="260" width="465" height="8" fill="#F7C948"/>

  <!-- body placeholder -->
  <text x="120" y="360" font-family="Arial, Helvetica, sans-serif" font-size="24" fill="#142433">Kính gửi: ...................................................................</text>

  <rect x="120" y="440" width="1860" height="6" fill="#F4F7F9"/>
  <rect x="120" y="500" width="1860" height="6" fill="#F4F7F9"/>
  <rect x="120" y="560" width="1860" height="6" fill="#F4F7F9"/>
  <rect x="120" y="620" width="1860" height="6" fill="#F4F7F9"/>
  <rect x="120" y="680" width="1140" height="6" fill="#F4F7F9"/>

  <rect x="120" y="780" width="1860" height="6" fill="#F4F7F9"/>
  <rect x="120" y="840" width="1860" height="6" fill="#F4F7F9"/>
  <rect x="120" y="900" width="700" height="6" fill="#F4F7F9"/>

  <!-- footer -->
  <line x1="120" y1="2780" x2="1980" y2="2780" stroke="#E3E6EB" stroke-width="3"/>
  <text x="120" y="2830" font-family="Arial, Helvetica, sans-serif" font-size="18" fill="#6b7280">vi-connect.vn · contact@vi-connect.vn</text>
  <text x="1980" y="2830" text-anchor="end" font-family="Arial, Helvetica, sans-serif" font-size="18" fill="#6b7280">18 Hoàng Quốc Việt, Cầu Giấy, Hà Nội</text>
</svg>
